{
  "accessors": [
    {
      "bufferView": 2,
      "componentType": 5126,
      "count": 65532,
      "max": [1.4130980968475342, 0.6880009174346924, 1.9104650020599365],
      "min": [-1.316091775894165, -0.4571131467819214, -1.889815092086792],
      "type": "VEC3"
    },
    {
      "bufferView": 2,
      "byteOffset": 786384,
      "componentType": 5126,
      "count": 65532,
      "max": [1.0, 1.0, 1.0],
      "min": [-1.0, -1.0, -1.0],
      "type": "VEC3"
    },
    {
      "bufferView": 1,
      "componentType": 5126,
      "count": 65532,
      "max": [0.0, 0.0],
      "min": [0.0, 0.0],
      "type": "VEC2"
    },
    {
      "bufferView": 1,
      "byteOffset": 524256,
      "componentType": 5126,
      "count": 65532,
      "max": [2.3411715030670166, 1.5975679159164429],
      "min": [-0.38801854848861694, -2.210024118423462],
      "type": "VEC2"
    },
    {
      "bufferView": 0,
      "componentType": 5125,
      "count": 349824,
      "type": "SCALAR"
    },
    {
      "bufferView": 2,
      "byteOffset": 1572768,
      "componentType": 5126,
      "count": 58536,
      "max": [1.408087968826294, 0.6881195902824402, 1.9036723375320435],
      "min": [-1.3105396032333374, -0.688119649887085, -1.88189697265625],
      "type": "VEC3"
    },
    {
      "bufferView": 2,
      "byteOffset": 2275200,
      "componentType": 5126,
      "count": 58536,
      "max": [1.0, 1.0, 1.0],
      "min": [-1.0, -1.0, -1.0],
      "type": "VEC3"
    },
    {
      "bufferView": 1,
      "byteOffset": 1048512,
      "componentType": 5126,
      "count": 58536,
      "max": [0.0, 0.0],
      "min": [0.0, 0.0],
      "type": "VEC2"
    },
    {
      "bufferView": 1,
      "byteOffset": 1516800,
      "componentType": 5126,
      "count": 58536,
      "max": [2.3411715030670166, 1.5975679159164429],
      "min": [-0.38801854848861694, -2.210024118423462],
      "type": "VEC2"
    },
    {
      "bufferView": 0,
      "byteOffset": 1399296,
      "componentType": 5125,
      "count": 310080,
      "type": "SCALAR"
    },
    {
      "bufferView": 2,
      "byteOffset": 2977632,
      "componentType": 5126,
      "count": 6910,
      "max": [-1.0318149328231812, 0.2543131709098816, 1.6096107959747314],
      "min": [-1.067465901374817, -0.2543131709098816, 1.5752671957015991],
      "type": "VEC3"
    },
    {
      "bufferView": 2,
      "byteOffset": 3060552,
      "componentType": 5126,
      "count": 6910,
      "max": [0.9987321496009827, 1.0, 0.9994992017745972],
      "min": [-0.9990359544754028, -1.0, -0.9987860918045044],
      "type": "VEC3"
    },
    {
      "bufferView": 1,
      "byteOffset": 1985088,
      "componentType": 5126,
      "count": 6910,
      "max": [0.0, 0.0],
      "min": [0.0, 0.0],
      "type": "VEC2"
    },
    {
      "bufferView": 1,
      "byteOffset": 2040368,
      "componentType": 5126,
      "count": 6910,
      "max": [0.597812831401825, 0.597812831401825],
      "min": [0.4706561863422394, 0.4706561863422394],
      "type": "VEC2"
    },
    {
      "bufferView": 1,
      "byteOffset": 2095648,
      "componentType": 5126,
      "count": 6910,
      "max": [0.0, 0.0],
      "min": [0.0, 0.0],
      "type": "VEC2"
    },
    {
      "bufferView": 0,
      "byteOffset": 2639616,
      "componentType": 5125,
      "count": 10368,
      "type": "SCALAR"
    }
  ],
  "asset": {
    "extras": {
      "author": "basharnazzal (https://sketchfab.com/basharnazzal)",
      "license": "CC-BY-4.0 (http://creativecommons.org/licenses/by/4.0/)",
      "source": "https://sketchfab.com/3d-models/fuel-tank-d9d9f8d4846b42c0a3d8bad50b1fe6d7",
      "title": "fuel tank"
    },
    "generator": "Sketchfab-16.12.0",
    "version": "2.0"
  },
  "bufferViews": [
    {
      "buffer": 0,
      "byteLength": 2681088,
      "name": "floatBufferViews",
      "target": 34963
    },
    {
      "buffer": 0,
      "byteLength": 2150928,
      "byteOffset": 2681088,
      "byteStride": 8,
      "name": "floatBufferViews",
      "target": 34962
    },
    {
      "buffer": 0,
      "byteLength": 3143472,
      "byteOffset": 4832016,
      "byteStride": 12,
      "name": "floatBufferViews",
      "target": 34962
    }
  ],
  "buffers": [
    {
      "byteLength": 7975488,
      "uri": "scene.bin"
    }
  ],
  "materials": [
    {
      "doubleSided": true,
      "name": "Rusty_Metal",
      "pbrMetallicRoughness": {
        "baseColorFactor": [
          0.2527695292606712, 0.002403387460972987, 0.002403387460972987, 1.0
        ],
        "metallicFactor": 0.0,
        "roughnessFactor": 0.6019065962867696
      }
    },
    {
      "doubleSided": true,
      "name": "Iron_Scratched",
      "pbrMetallicRoughness": {
        "baseColorFactor": [0.8, 0.8, 0.8, 1.0],
        "metallicFactor": 0.0,
        "roughnessFactor": 0.8211145618000169
      }
    }
  ],
  "meshes": [
    {
      "name": "Cube_Rusty Metal_0",
      "primitives": [
        {
          "attributes": {
            "NORMAL": 1,
            "POSITION": 0,
            "TEXCOORD_0": 2,
            "TEXCOORD_1": 3
          },
          "indices": 4,
          "material": 0,
          "mode": 4
        }
      ]
    },
    {
      "name": "Cube_Rusty Metal_0",
      "primitives": [
        {
          "attributes": {
            "NORMAL": 6,
            "POSITION": 5,
            "TEXCOORD_0": 7,
            "TEXCOORD_1": 8
          },
          "indices": 9,
          "material": 0,
          "mode": 4
        }
      ]
    },
    {
      "name": "Cube.001_Iron Scratched_0",
      "primitives": [
        {
          "attributes": {
            "NORMAL": 11,
            "POSITION": 10,
            "TEXCOORD_0": 12,
            "TEXCOORD_1": 13,
            "TEXCOORD_2": 14
          },
          "indices": 15,
          "material": 1,
          "mode": 4
        }
      ]
    }
  ],
  "nodes": [
    {
      "children": [1],
      "matrix": [
        1.0, 0.0, 0.0, 0.0, 0.0, 2.220446049250313e-16, -1.0, 0.0, 0.0, 1.0,
        2.220446049250313e-16, 0.0, 0.0, 0.0, 0.0, 1.0
      ],
      "name": "Sketchfab_model"
    },
    {
      "children": [2],
      "matrix": [
        0.009999999776482582, 0.0, 0.0, 0.0, 0.0, 0.0, 0.009999999776482582,
        0.0, 0.0, -0.009999999776482582, 0.0, 0.0, 0.0, 0.0, 0.0, 1.0
      ],
      "name": "111882d59e9c4cbc96f3ccbbbc84ed9f.fbx"
    },
    {
      "children": [3, 6],
      "name": "RootNode"
    },
    {
      "children": [4, 5],
      "matrix": [
        100.0, 0.0, 0.0, 0.0, 0.0, -1.629206793918314e-5, -99.99999999999868,
        0.0, 0.0, 99.99999999999868, -1.629206793918314e-5, 0.0, 0.0, 0.0, 0.0,
        1.0
      ],
      "name": "Cube"
    },
    {
      "mesh": 0,
      "name": "Cube_Rusty Metal_0"
    },
    {
      "mesh": 1,
      "name": "Cube_Rusty Metal_0"
    },
    {
      "children": [7],
      "matrix": [
        100.0, 0.0, 0.0, 0.0, 0.0, -1.629206793918314e-5, -99.99999999999868,
        0.0, 0.0, 99.99999999999868, -1.629206793918314e-5, 0.0, 0.0, 0.0, 0.0,
        1.0
      ],
      "name": "Cube.001"
    },
    {
      "mesh": 2,
      "name": "Cube.001_Iron Scratched_0"
    }
  ],
  "scene": 0,
  "scenes": [
    {
      "name": "Sketchfab_Scene",
      "nodes": [0]
    }
  ]
}
